<svg xmlns="http://www.w3.org/2000/svg" xmlns:xlink="http://www.w3.org/1999/xlink" width="600" zoomAndPan="magnify" viewBox="0 0 450 380.999991" height="508" preserveAspectRatio="xMidYMid meet" version="1.0"><defs><g/><clipPath id="1406703556"><path d="M 154.058594 75.585938 L 280.808594 75.585938 L 280.808594 220.335938 L 154.058594 220.335938 Z M 154.058594 75.585938 " clip-rule="nonzero"/></clipPath></defs><rect x="-45" width="540" fill="#ffffff" y="-38.099999" height="457.199989" fill-opacity="1"/><rect x="-45" width="540" fill="#ffffff" y="-38.099999" height="457.199989" fill-opacity="1"/><g fill="#463f57" fill-opacity="1"><g transform="translate(75.292904, 292.992096)"><g/></g></g><g fill="#463f57" fill-opacity="1"><g transform="translate(90.291166, 292.992096)"><g/></g></g><g fill="#463f57" fill-opacity="1"><g transform="translate(105.289428, 292.992096)"><g/></g></g><g fill="#463f57" fill-opacity="1"><g transform="translate(120.281182, 292.992096)"><g><path d="M 34.09375 -9.453125 C 34.09375 -7.921875 33.867188 -6.53125 33.421875 -5.28125 C 32.972656 -4.03125 32.171875 -2.960938 31.015625 -2.078125 C 29.867188 -1.191406 28.296875 -0.5 26.296875 0 C 24.296875 0.5 21.75 0.75 18.65625 0.75 C 15.550781 0.75 13 0.5 11 0 C 9 -0.5 7.421875 -1.191406 6.265625 -2.078125 C 5.117188 -2.960938 4.320312 -4.03125 3.875 -5.28125 C 3.425781 -6.53125 3.203125 -7.921875 3.203125 -9.453125 L 3.203125 -34.203125 C 3.203125 -34.835938 3.34375 -35.296875 3.625 -35.578125 C 3.90625 -35.859375 4.363281 -36 5 -36 L 12.84375 -36 C 13.476562 -36 13.9375 -35.859375 14.21875 -35.578125 C 14.507812 -35.296875 14.65625 -34.835938 14.65625 -34.203125 L 14.65625 -11.40625 C 14.65625 -10.738281 14.90625 -10.175781 15.40625 -9.71875 C 15.90625 -9.269531 17.019531 -9.046875 18.75 -9.046875 C 20.519531 -9.046875 21.65625 -9.269531 22.15625 -9.71875 C 22.65625 -10.175781 22.90625 -10.738281 22.90625 -11.40625 L 22.90625 -34.203125 C 22.90625 -34.835938 23.046875 -35.296875 23.328125 -35.578125 C 23.609375 -35.859375 24.066406 -36 24.703125 -36 L 32.296875 -36 C 32.929688 -36 33.390625 -35.859375 33.671875 -35.578125 C 33.953125 -35.296875 34.09375 -34.835938 34.09375 -34.203125 Z M 34.09375 -9.453125 "/></g></g></g><g fill="#463f57" fill-opacity="1"><g transform="translate(161.325406, 292.992096)"><g><path d="M 12.75 0 L 5.25 0 C 4.613281 0 4.15625 -0.140625 3.875 -0.421875 C 3.59375 -0.703125 3.453125 -1.160156 3.453125 -1.796875 L 3.453125 -34.203125 C 3.453125 -34.835938 3.59375 -35.296875 3.875 -35.578125 C 4.15625 -35.859375 4.613281 -36 5.25 -36 L 10.453125 -36 C 11.085938 -36 11.628906 -35.898438 12.078125 -35.703125 C 12.523438 -35.503906 12.96875 -35.15625 13.40625 -34.65625 L 23.09375 -23.546875 L 23.09375 -34.203125 C 23.09375 -34.835938 23.234375 -35.296875 23.515625 -35.578125 C 23.804688 -35.859375 24.269531 -36 24.90625 -36 L 32.40625 -36 C 33.03125 -36 33.484375 -35.859375 33.765625 -35.578125 C 34.054688 -35.296875 34.203125 -34.835938 34.203125 -34.203125 L 34.203125 -1.796875 C 34.203125 -1.160156 34.054688 -0.703125 33.765625 -0.421875 C 33.484375 -0.140625 33.03125 0 32.40625 0 L 24.90625 0 C 24.269531 0 23.804688 -0.140625 23.515625 -0.421875 C 23.234375 -0.703125 23.09375 -1.160156 23.09375 -1.796875 L 23.09375 -7.953125 L 14.546875 -18.296875 L 14.546875 -1.796875 C 14.546875 -1.160156 14.40625 -0.703125 14.125 -0.421875 C 13.84375 -0.140625 13.382812 0 12.75 0 Z M 12.75 0 "/></g></g></g><g fill="#463f57" fill-opacity="1"><g transform="translate(202.719579, 292.992096)"><g><path d="M 4.453125 0 C 3.816406 0 3.359375 -0.140625 3.078125 -0.421875 C 2.796875 -0.703125 2.65625 -1.160156 2.65625 -1.796875 L 2.65625 -7.75 C 2.65625 -8.382812 2.796875 -8.84375 3.078125 -9.125 C 3.359375 -9.40625 3.816406 -9.546875 4.453125 -9.546875 L 9.40625 -9.546875 L 9.40625 -26.34375 L 4.453125 -26.34375 C 3.816406 -26.34375 3.359375 -26.484375 3.078125 -26.765625 C 2.796875 -27.054688 2.65625 -27.519531 2.65625 -28.15625 L 2.65625 -34.203125 C 2.65625 -34.835938 2.796875 -35.296875 3.078125 -35.578125 C 3.359375 -35.859375 3.816406 -36 4.453125 -36 L 25.75 -36 C 26.382812 -36 26.84375 -35.859375 27.125 -35.578125 C 27.40625 -35.296875 27.546875 -34.835938 27.546875 -34.203125 L 27.546875 -28.15625 C 27.546875 -27.519531 27.40625 -27.054688 27.125 -26.765625 C 26.84375 -26.484375 26.382812 -26.34375 25.75 -26.34375 L 20.90625 -26.34375 L 20.90625 -9.546875 L 25.75 -9.546875 C 26.382812 -9.546875 26.84375 -9.40625 27.125 -9.125 C 27.40625 -8.84375 27.546875 -8.382812 27.546875 -7.75 L 27.546875 -1.796875 C 27.546875 -1.160156 27.40625 -0.703125 27.125 -0.421875 C 26.84375 -0.140625 26.382812 0 25.75 0 Z M 4.453125 0 "/></g></g></g><g fill="#463f57" fill-opacity="1"><g transform="translate(236.714898, 292.992096)"><g><path d="M 27.40625 0 L 15.203125 0 C 11.035156 0 7.941406 -0.832031 5.921875 -2.5 C 3.910156 -4.164062 2.90625 -6.734375 2.90625 -10.203125 L 2.90625 -25.75 C 2.90625 -29.21875 3.910156 -31.789062 5.921875 -33.46875 C 7.941406 -35.15625 11.035156 -36 15.203125 -36 L 27.40625 -36 C 28.03125 -36 28.484375 -35.859375 28.765625 -35.578125 C 29.054688 -35.296875 29.203125 -34.835938 29.203125 -34.203125 L 29.203125 -28.15625 C 29.203125 -27.519531 29.054688 -27.054688 28.765625 -26.765625 C 28.484375 -26.484375 28.03125 -26.34375 27.40625 -26.34375 L 17.34375 -26.34375 C 16.3125 -26.34375 15.546875 -26.132812 15.046875 -25.71875 C 14.546875 -25.300781 14.296875 -24.675781 14.296875 -23.84375 L 14.296875 -11.953125 C 14.296875 -11.117188 14.546875 -10.507812 15.046875 -10.125 C 15.546875 -9.738281 16.3125 -9.546875 17.34375 -9.546875 L 27.40625 -9.546875 C 28.03125 -9.546875 28.484375 -9.40625 28.765625 -9.125 C 29.054688 -8.84375 29.203125 -8.382812 29.203125 -7.75 L 29.203125 -1.796875 C 29.203125 -1.160156 29.054688 -0.703125 28.765625 -0.421875 C 28.484375 -0.140625 28.03125 0 27.40625 0 Z M 27.40625 0 "/></g></g></g><g fill="#38b6ff" fill-opacity="1"><g transform="translate(270.196027, 292.99211)"><g><path d="M 16.5 -25.5 L 14.15625 -17.90625 L 22 -17.90625 L 19.65625 -25.5 C 19.519531 -25.800781 19.375 -26.015625 19.21875 -26.140625 C 19.070312 -26.273438 18.898438 -26.34375 18.703125 -26.34375 L 17.453125 -26.34375 C 17.253906 -26.34375 17.078125 -26.273438 16.921875 -26.140625 C 16.773438 -26.015625 16.632812 -25.800781 16.5 -25.5 Z M 13.65625 -1.796875 C 13.65625 -1.160156 13.507812 -0.703125 13.21875 -0.421875 C 12.9375 -0.140625 12.476562 0 11.84375 0 L 4.5 0 C 3.863281 0 3.40625 -0.140625 3.125 -0.421875 C 2.84375 -0.703125 2.703125 -1.160156 2.703125 -1.796875 L 2.703125 -15 C 2.703125 -16 2.859375 -17.148438 3.171875 -18.453125 C 3.492188 -19.753906 3.988281 -21.269531 4.65625 -23 L 9 -34.34375 C 9.195312 -34.914062 9.503906 -35.332031 9.921875 -35.59375 C 10.335938 -35.863281 10.878906 -36 11.546875 -36 L 25 -36 C 25.632812 -36 26.160156 -35.863281 26.578125 -35.59375 C 26.992188 -35.332031 27.300781 -34.914062 27.5 -34.34375 L 31.84375 -23 C 32.507812 -21.269531 33 -19.753906 33.3125 -18.453125 C 33.632812 -17.148438 33.796875 -16 33.796875 -15 L 33.796875 -1.796875 C 33.796875 -1.160156 33.65625 -0.703125 33.375 -0.421875 C 33.09375 -0.140625 32.632812 0 32 0 L 24.453125 0 C 23.785156 0 23.289062 -0.140625 22.96875 -0.421875 C 22.65625 -0.703125 22.5 -1.160156 22.5 -1.796875 L 22.5 -8.796875 L 13.65625 -8.796875 Z M 13.65625 -1.796875 "/></g></g></g><g fill="#38b6ff" fill-opacity="1"><g transform="translate(310.440372, 292.99211)"><g><path d="M 20.453125 0 L 12.34375 0 C 11.71875 0 11.257812 -0.140625 10.96875 -0.421875 C 10.6875 -0.703125 10.546875 -1.160156 10.546875 -1.796875 L 10.546875 -26.34375 L 3.203125 -26.34375 C 2.566406 -26.34375 2.109375 -26.484375 1.828125 -26.765625 C 1.546875 -27.054688 1.40625 -27.519531 1.40625 -28.15625 L 1.40625 -34.203125 C 1.40625 -34.835938 1.546875 -35.296875 1.828125 -35.578125 C 2.109375 -35.859375 2.566406 -36 3.203125 -36 L 29.59375 -36 C 30.226562 -36 30.6875 -35.859375 30.96875 -35.578125 C 31.257812 -35.296875 31.40625 -34.835938 31.40625 -34.203125 L 31.40625 -28.15625 C 31.40625 -27.519531 31.257812 -27.054688 30.96875 -26.765625 C 30.6875 -26.484375 30.226562 -26.34375 29.59375 -26.34375 L 22.25 -26.34375 L 22.25 -1.796875 C 22.25 -1.160156 22.109375 -0.703125 21.828125 -0.421875 C 21.546875 -0.140625 21.085938 0 20.453125 0 Z M 20.453125 0 "/></g></g></g><path fill="#737373" d="M 258.515625 124.203125 C 258.261719 123.730469 257.921875 123.261719 257.21875 122.90625 L 247.183594 117.105469 C 247.046875 117.027344 246.898438 116.964844 246.738281 116.925781 C 246.6875 116.914062 246.640625 116.914062 246.585938 116.90625 C 246.480469 116.886719 246.378906 116.871094 246.273438 116.871094 L 246.253906 116.871094 L 246.253906 116.875 C 245.957031 116.878906 245.664062 116.960938 245.40625 117.105469 L 222.824219 130.15625 L 222.804688 130.117188 L 220.984375 131.171875 C 218.785156 132.441406 216.082031 132.441406 213.882812 131.171875 L 204.011719 125.46875 C 203.464844 125.152344 203.125 124.566406 203.125 123.929688 C 203.125 123.296875 203.464844 122.710938 204.011719 122.390625 L 213.882812 116.691406 C 216.082031 115.421875 218.785156 115.421875 220.984375 116.691406 L 223.359375 118.066406 C 223.910156 118.382812 224.582031 118.382812 225.132812 118.066406 L 234.324219 112.753906 C 234.875 112.4375 235.210938 111.851562 235.210938 111.214844 C 235.210938 110.582031 234.875 109.996094 234.324219 109.675781 L 220.984375 101.964844 C 218.785156 100.699219 216.082031 100.699219 213.882812 101.964844 L 181.195312 120.855469 C 178.828125 122.222656 178.828125 125.636719 181.195312 127.003906 L 213.882812 145.894531 C 216.082031 147.164062 218.785156 147.164062 220.984375 145.894531 L 246.253906 131.292969 L 246.253906 164.554688 L 238.132812 169.261719 L 220.984375 179.203125 C 220.4375 179.515625 219.859375 179.75 219.253906 179.914062 C 217.441406 180.394531 215.511719 180.136719 213.882812 179.203125 L 190.382812 165.625 C 189.285156 164.992188 188.609375 163.816406 188.609375 162.546875 L 188.609375 143.160156 C 188.609375 142.523438 188.269531 141.933594 187.722656 141.621094 L 178.53125 136.304688 C 177.980469 135.988281 177.304688 135.988281 176.753906 136.304688 C 176.207031 136.625 175.867188 137.214844 175.867188 137.847656 L 175.867188 169.910156 C 175.867188 171.179688 176.546875 172.347656 177.644531 172.988281 L 213.882812 193.929688 C 214.945312 194.542969 216.15625 194.863281 217.382812 194.875 L 217.40625 194.875 C 217.582031 194.875 217.753906 194.855469 217.929688 194.84375 C 218.0625 194.835938 218.195312 194.835938 218.328125 194.820312 C 218.511719 194.796875 218.695312 194.75 218.875 194.714844 C 218.996094 194.6875 219.121094 194.671875 219.238281 194.640625 C 219.4375 194.59375 219.625 194.519531 219.8125 194.449219 C 219.921875 194.410156 220.027344 194.382812 220.125 194.34375 C 220.417969 194.226562 220.707031 194.085938 220.976562 193.929688 L 252.246094 175.863281 L 257.199219 173.046875 C 258.308594 172.417969 258.996094 171.238281 258.996094 169.960938 L 258.996094 125.980469 C 258.996094 125.347656 258.824219 124.734375 258.515625 124.203125 " fill-opacity="1" fill-rule="nonzero"/><g clip-path="url(#1406703556)"><path fill="#38b6ff" d="M 220.894531 91.34375 C 219.839844 90.734375 218.652344 90.410156 217.433594 90.398438 C 216.21875 90.410156 215.027344 90.738281 213.972656 91.34375 L 170.304688 116.574219 C 168.113281 117.84375 166.765625 120.179688 166.765625 122.710938 L 166.765625 173.179688 C 166.765625 175.710938 168.113281 178.046875 170.304688 179.3125 L 213.972656 204.542969 C 215.042969 205.164062 216.25 205.488281 217.480469 205.496094 C 218.714844 205.488281 219.929688 205.164062 220.996094 204.546875 L 264.472656 179.425781 C 266.664062 178.164062 268.015625 175.824219 268.015625 173.292969 L 268.015625 158.710938 C 268.007812 158.074219 268.351562 157.492188 268.894531 157.171875 L 278.152344 151.828125 C 278.699219 151.507812 279.375 151.507812 279.921875 151.828125 C 280.472656 152.144531 280.808594 152.730469 280.808594 153.363281 L 280.808594 180.519531 C 280.800781 181.679688 280.515625 182.820312 279.972656 183.839844 C 279.832031 184.511719 279.105469 185.296875 278.074219 186.105469 C 278.054688 186.125 278.023438 186.144531 278 186.164062 C 275.386719 188.203125 271.058594 190.300781 270.292969 190.75 L 220.996094 219.230469 C 219.894531 219.863281 218.636719 220.191406 217.363281 220.175781 L 217.308594 220.175781 L 217.308594 220.171875 C 216.136719 220.140625 214.988281 219.8125 213.972656 219.230469 L 157.597656 186.65625 C 155.40625 185.390625 154.058594 183.054688 154.058594 180.519531 L 154.058594 115.371094 C 154.058594 114.234375 154.203125 113.078125 154.699219 112.09375 C 154.769531 111.84375 155.453125 110.589844 156.859375 109.5625 C 157.390625 109.203125 158.328125 108.722656 159.207031 108.214844 L 213.8125 76.664062 C 214.914062 76.027344 216.164062 75.703125 217.433594 75.71875 C 218.707031 75.703125 219.953125 76.027344 221.050781 76.664062 L 271.441406 105.773438 C 271.554688 105.84375 271.644531 105.925781 271.742188 106.007812 L 272.382812 106.375 C 274.09375 107.28125 276.777344 108.667969 278.234375 109.773438 L 278.351562 109.863281 C 278.371094 109.878906 278.390625 109.894531 278.410156 109.90625 C 278.460938 109.949219 278.496094 109.992188 278.546875 110.035156 C 279.082031 110.484375 279.535156 111.007812 279.886719 111.597656 C 279.898438 111.605469 279.902344 111.613281 279.910156 111.625 L 279.90625 111.625 C 280.496094 112.609375 280.808594 113.734375 280.808594 114.878906 L 280.808594 138.734375 C 280.808594 139.371094 280.472656 139.953125 279.921875 140.269531 L 270.664062 145.621094 C 270.117188 145.933594 269.441406 145.933594 268.894531 145.621094 C 268.347656 145.304688 268.007812 144.722656 268.007812 144.085938 L 268.007812 122.574219 C 268.007812 120.039062 266.65625 117.699219 264.464844 116.433594 Z M 220.894531 91.34375 " fill-opacity="1" fill-rule="nonzero"/></g></svg>